<svg width="564" height="465" viewBox="0 0 564 465" fill="none" xmlns="http://www.w3.org/2000/svg">
<g id="logo kk">
<g id="logo1">
<g id="Group 3">
<path id="Vector 21" d="M138.51 61.1322C141.51 50.6322 144.814 31.7009 150.51 27.6322C154.01 25.1322 156.81 38.4322 154.01 47.6322C150.51 59.1322 170.66 21.7177 176.01 15.1322C182.51 7.13217 189.01 4.13218 187.01 16.6322C185.81 24.1322 207.51 -7.36783 236.01 1.63217C238.01 6.63218 212.151 17.0619 201.01 22.6322C192.01 27.1322 181.51 34.1322 186.51 31.1322C189.01 29.6322 194.51 30.1322 196.01 32.6322C199.089 37.7633 192.01 39.1322 185.51 42.6322C179.01 46.1322 161.51 56.6322 147.01 76.6322C139.035 87.6322 137.01 96.1322 136.01 97.6322C137.01 96.1322 140.488 92.9868 144.01 91.6322C150.51 89.1322 157.01 91.6322 136.01 111.632C121.281 125.66 108.511 163.132 116.011 152.132C122.511 142.599 130.01 138.632 138.51 138.132C145.511 137.72 144.51 144.632 131.51 156.632C118.943 168.233 108.01 196.632 114.01 185.132C120.01 173.632 137.51 164.132 136.01 171.632C134.81 177.632 131.51 182.132 130.01 183.632C135.844 182.132 143.618 181.556 131.51 194.632C119.011 208.132 112.51 233.799 111.01 245.632C114.177 239.299 122.735 229.204 133.01 229.632C145.011 230.132 147.511 240.306 147.511 245.632C147.511 251.715 144.011 261.786 134.01 260.632C125.011 259.594 124.344 251.465 126.01 247.632C118.01 255.632 122.01 282.632 136.01 309.132C150.01 335.632 182.51 360.632 171.01 353.132C159.51 345.632 136.01 345.632 126.01 346.132C116.01 346.632 70.0105 356.632 86.5105 339.632C99.7105 326.032 125.01 326.632 136.01 328.632C131.51 325.132 114.649 310.172 97.0105 305.132C86.5105 302.132 75.5105 307.799 75.0105 312.132C75.5105 311.299 77.4105 309.732 81.0105 310.132C86.5105 310.743 91.1017 320.163 83.0105 327.632C76.5105 333.632 66.0105 332.632 59.0105 325.632C54.0105 320.632 51.5105 301.132 72.5105 294.132C89.3105 288.532 109.844 296.465 118.01 301.132C96.0105 278.132 76.5838 275.614 60.5104 279.632C44.5105 283.632 37.0105 296.132 35.0105 307.132C33.5559 315.132 34.0105 322.132 31.0105 320.632C28.0105 319.132 17.0105 310.632 18.0105 295.132C18.8105 282.732 23.6772 276.299 27.5105 274.132C15.0105 271.632 9.01051 267.432 7.01049 264.632L7.01015 264.632C4.74044 261.454 2.29897 258.036 17.0105 253.132C27.0653 249.781 46.1373 255.752 54.9078 260.069C41.314 252.987 35.7963 244.678 34.0105 240.132C34.3438 237.799 40.3452 234.738 60.5104 241.132C81.0105 247.632 99.5105 264.299 107.01 274.132C91.5105 242.132 83.5105 234.632 73.5105 226.632C63.5105 218.632 46.0105 212.632 45.5105 206.632C45.1105 201.832 52.3438 202.299 56.0105 203.132C39.0105 197.132 24.5105 175.132 36.0105 176.632C45.2105 177.832 56.1771 187.132 60.5104 191.632C60.5104 188.465 56.7104 178.832 41.5105 165.632C22.5105 149.132 -10.904 152.544 3.51048 141.132C15.5105 131.632 45.5105 147.632 41.5105 144.132C37.5105 140.632 23.0105 115.632 38.5105 122.132C50.9105 127.332 58.3438 144.299 60.5104 152.132C60.3438 146.132 61.3105 135.532 66.5105 141.132C71.7105 146.732 74.6771 170.799 75.5105 182.132C78.0105 176.132 83.5105 175.632 83.5105 179.132C83.5105 182.632 81.5105 184.632 83.5105 203.132C85.5105 221.632 98.5104 240.632 98.5104 239.632C98.5104 238.632 101.51 235.132 100.01 209.132C98.8105 188.332 90.8438 169.132 87.0105 162.132C85.0938 158.632 82.3105 153.732 85.5105 152.132C88.7105 150.532 93.1771 152.799 95.0105 154.132C87.6771 143.465 74.7105 121.832 81.5105 120.632C90.0105 119.132 104.01 136.632 103.51 134.132C103.01 131.632 102.51 127.632 98.5104 120.632C94.4041 113.446 73.5104 90.1322 91.0104 94.1322C105.01 97.3322 109.844 109.799 110.51 115.632C115.31 110.032 115.844 89.2988 115.51 79.6322C115.407 76.6322 115.672 85.8399 106.01 84.6322C94.0105 83.1322 93.5105 61.1322 111.51 63.6322C128.203 65.9506 123.51 90.1322 126.51 90.1322C129.51 90.1322 135.51 71.6322 138.51 61.1322Z" fill="#939393"/>
<path id="Vector 22" d="M424.62 61.1322C421.62 50.6322 418.316 31.7009 412.62 27.6322C409.12 25.1322 406.32 38.4322 409.12 47.6322C412.62 59.1322 392.471 21.7177 387.12 15.1322C380.62 7.13217 374.12 4.13218 376.12 16.6322C377.32 24.1322 355.621 -7.36783 327.12 1.63217C325.121 6.63218 350.979 17.0619 362.12 22.6322C371.12 27.1322 381.62 34.1322 376.62 31.1322C374.12 29.6322 368.62 30.1322 367.12 32.6322C364.042 37.7633 371.12 39.1322 377.62 42.6322C384.12 46.1322 401.62 56.6322 416.12 76.6322C424.095 87.6322 426.12 96.1322 427.12 97.6322C426.12 96.1322 422.642 92.9868 419.12 91.6322C412.62 89.1322 406.12 91.6322 427.12 111.632C441.85 125.66 454.62 163.132 447.12 152.132C440.62 142.599 433.12 138.632 424.62 138.132C417.62 137.72 418.62 144.632 431.62 156.632C444.187 168.233 455.12 196.632 449.12 185.132C443.12 173.632 425.62 164.132 427.12 171.632C428.32 177.632 431.62 182.132 433.12 183.632C427.287 182.132 419.512 181.556 431.62 194.632C444.12 208.132 450.62 233.799 452.12 245.632C448.953 239.299 440.395 229.204 430.12 229.632C418.12 230.132 415.62 240.306 415.62 245.632C415.62 251.715 419.12 261.786 429.12 260.632C438.12 259.594 438.787 251.465 437.12 247.632C445.12 255.632 441.12 282.632 427.12 309.132C413.12 335.632 380.62 360.632 392.12 353.132C403.62 345.632 427.12 345.632 437.12 346.132C447.12 346.632 493.12 356.632 476.62 339.632C463.42 326.032 438.12 326.632 427.12 328.632C431.62 325.132 448.482 310.172 466.12 305.132C476.62 302.132 487.62 307.799 488.12 312.132C487.62 311.299 485.72 309.732 482.12 310.132C476.62 310.743 472.029 320.163 480.12 327.632C486.62 333.632 497.12 332.632 504.12 325.632C509.12 320.632 511.62 301.132 490.62 294.132C473.82 288.532 453.287 296.465 445.12 301.132C467.12 278.132 486.547 275.614 502.62 279.632C518.62 283.632 526.12 296.132 528.12 307.132C529.575 315.132 529.12 322.132 532.12 320.632C535.12 319.132 546.12 310.632 545.12 295.132C544.32 282.732 539.453 276.299 535.62 274.132C548.12 271.632 554.12 267.432 556.12 264.632L556.12 264.632C558.39 261.454 560.832 258.036 546.12 253.132C536.065 249.781 516.993 255.752 508.223 260.069C521.817 252.987 527.334 244.678 529.12 240.132C528.787 237.799 522.785 234.738 502.62 241.132C482.12 247.632 463.62 264.299 456.12 274.132C471.62 242.132 479.62 234.632 489.62 226.632C499.62 218.632 517.12 212.632 517.62 206.632C518.02 201.832 510.787 202.299 507.12 203.132C524.12 197.132 538.62 175.132 527.12 176.632C517.92 177.832 506.953 187.132 502.62 191.632C502.62 188.465 506.42 178.832 521.62 165.632C540.62 149.132 574.035 152.544 559.62 141.132C547.62 131.632 517.62 147.632 521.62 144.132C525.62 140.632 540.12 115.632 524.62 122.132C512.22 127.332 504.787 144.299 502.62 152.132C502.787 146.132 501.82 135.532 496.62 141.132C491.42 146.732 488.453 170.799 487.62 182.132C485.12 176.132 479.62 175.632 479.62 179.132C479.62 182.632 481.62 184.632 479.62 203.132C477.62 221.632 464.62 240.632 464.62 239.632C464.62 238.632 461.62 235.132 463.12 209.132C464.32 188.332 472.287 169.132 476.12 162.132C478.037 158.632 480.82 153.732 477.62 152.132C474.42 150.532 469.953 152.799 468.12 154.132C475.453 143.465 488.42 121.832 481.62 120.632C473.12 119.132 459.12 136.632 459.62 134.132C460.12 131.632 460.62 127.632 464.62 120.632C468.727 113.446 489.62 90.1322 472.12 94.1322C458.12 97.3322 453.287 109.799 452.62 115.632C447.82 110.032 447.287 89.2988 447.62 79.6322C447.724 76.6322 447.458 85.8399 457.12 84.6322C469.12 83.1322 469.62 61.1322 451.62 63.6322C434.927 65.9506 439.62 90.1322 436.62 90.1322C433.62 90.1322 427.62 71.6322 424.62 61.1322Z" fill="#939393"/>
</g>
<g id="Group 4">
<path id="Vector 28" d="M347.594 205.132L313.594 220.132C310.094 221.632 311.194 233.632 325.594 229.632C341.094 225.327 347.594 211.632 347.594 205.132Z" fill="#5D7DFD"/>
<path id="Vector 29" d="M211.094 205.132L245.094 220.132C248.594 221.632 247.494 233.632 233.094 229.632C217.594 225.327 211.094 211.632 211.094 205.132Z" fill="#5D7DFD"/>
<path id="Subtract" d="M189.289 152.671C210.623 161.672 255.688 180.671 265.287 184.67C275.1 188.759 277.589 197.289 277.594 201.119L279.584 279.267C282.05 280.02 284.247 279.229 285.875 277.873C286.725 277.164 287.411 276.307 287.881 275.453C288.356 274.594 288.594 273.771 288.594 273.132C288.594 264.797 288.644 253.07 288.794 242.975C288.869 237.928 288.97 233.286 289.101 229.68C289.167 227.877 289.24 226.33 289.323 225.118C289.404 223.92 289.497 223.016 289.606 222.524C289.812 221.596 290.078 220.93 290.408 220.493C290.753 220.035 291.196 219.8 291.692 219.847C292.141 219.89 292.521 220.157 292.804 220.431C293.024 220.644 293.219 220.893 293.379 221.14L293.529 221.384L293.587 221.487L293.593 221.605L296.593 277.105L296.606 277.337L296.437 277.496L279.437 293.496L279.094 293.819L278.751 293.496L261.751 277.496L261.583 277.338L261.595 277.108L264.578 216.449L192.011 183.868C190.813 194.139 188.373 215.04 187.59 221.691C187.194 225.059 187.281 227.384 187.538 228.911C187.666 229.675 187.835 230.231 188.002 230.615C188.175 231.01 188.328 231.182 188.394 231.232L188.485 231.3L188.538 231.4C189.601 233.43 191.72 235.968 194.5 238.761C197.272 241.545 200.668 244.553 204.25 247.522C211.416 253.46 219.303 259.226 224.377 262.72L224.599 262.872L224.594 263.142C224.344 276.307 224.044 296.279 223.957 313.41C223.913 321.975 223.923 329.828 224.018 335.762C224.066 338.73 224.135 341.214 224.229 343.066C224.276 343.992 224.329 344.756 224.388 345.34C224.449 345.941 224.514 346.309 224.569 346.474C225.106 348.085 226.832 349.547 228.917 350.735C230.697 351.749 232.649 352.511 234.094 352.962V259.916C232.255 258.81 229.111 256.379 225.773 253.577C222.265 250.634 218.504 247.249 215.741 244.486C212.956 241.701 208.684 236.043 206.483 232.522C205.933 231.642 205.499 230.875 205.25 230.31C205.13 230.036 205.034 229.766 205.007 229.537C204.995 229.427 204.989 229.263 205.06 229.102C205.147 228.903 205.324 228.768 205.538 228.733C205.711 228.704 205.871 228.748 205.983 228.789C206.104 228.835 206.229 228.902 206.356 228.981C206.61 229.139 206.923 229.379 207.294 229.699C208.04 230.34 209.077 231.345 210.456 232.786C219.201 241.929 234.678 251.532 241.335 255.194L241.594 255.336V371.958L240.863 371.576C197.945 349.114 175.169 313.415 169.13 298.318L169.046 298.11L169.147 297.909C171.632 292.938 176.698 280.112 177.094 268.615C177.292 262.886 176.015 255.565 174.322 248.714C172.631 241.872 170.537 235.542 169.126 231.809L169.072 231.663L169.109 231.512L188.609 153.012L188.75 152.445L189.289 152.671ZM202.094 264.632C203.087 271.966 203.377 287.232 196.594 289.632C196.094 289.799 195.194 289.432 195.594 286.632C196.094 283.132 196.594 271.632 194.094 267.632C193.261 266.299 191.394 264.432 190.594 267.632C190.594 275.799 189.394 294.332 184.594 303.132C189.261 309.799 200.894 324.932 210.094 332.132C211.094 332.799 213.094 333.232 213.094 329.632V274.132L202.094 264.632Z" fill="#939393"/>
<path id="Vector 25" d="M314.594 95.6322C306.647 88.6781 296.094 81.6322 299.594 68.6322C309.594 68.6322 316.094 88.1322 316.094 83.6322C316.094 80.0322 318.261 77.7988 319.094 77.6322C325.594 79.1322 329.928 94.2988 331.094 102.132C332.594 95.1322 335.927 84.1909 341.094 95.6322C348.094 111.132 331.094 134.632 339.594 124.632C346.394 116.632 354.428 117.632 357.594 119.132C358.094 134.132 331.094 140.632 343.594 138.132C353.4 136.171 356.594 153.132 349.094 150.132C341.594 147.132 334.094 151.132 326.594 155.132C319.619 158.853 293.094 173.632 304.594 162.132C313.794 152.932 312.428 140.632 310.594 135.632C310.594 142.132 305.594 143.632 301.094 142.632C296.594 141.632 292.594 128.132 307.094 127.132C318.694 126.332 320.928 139.466 320.594 146.132C321.794 143.732 322.761 139.799 323.094 138.132C325.094 126.132 319.094 119.632 316.094 116.632C313.094 113.632 294.094 104.632 305.594 102.132C314.794 100.132 323.428 107.966 326.594 112.132C326.594 108.466 322.594 102.632 314.594 95.6322Z" fill="#939393"/>
<path id="Vector 24" d="M229.428 133.251C229.913 144.579 240.204 145.634 245.407 141.963C249.61 138.998 248.998 134.038 248.163 132.748C254.538 134.112 257.043 137.981 258.716 144.29C260.148 149.694 261.65 170.446 262.592 160.453C263.534 150.46 264.244 136.96 259.799 128.767C252.12 114.615 228.82 119.043 229.428 133.251Z" fill="#939393"/>
<path id="Vector 23" d="M262.094 116.132L258.094 71.1322C240.094 77.1322 252.594 96.6322 245.594 92.6322C238.594 88.6322 225.983 88.1991 221.094 91.1322C216.094 94.1321 221.594 98.1322 224.594 98.6322C212.594 102.132 207.594 107.632 205.094 113.632C203.094 118.432 211.261 117.966 215.594 117.132C201.594 122.632 195.594 142.632 201.594 143.632C206.394 144.432 209.261 141.299 210.594 139.632C210.594 151.132 218.094 159.132 229.594 161.132C241.094 163.132 248.594 157.632 251.094 153.632C254.594 148.032 253.727 140.21 250.594 145.132C246.007 152.341 235.594 152.832 231.094 151.632C226.594 150.432 222.761 146.132 221.594 142.632C220.428 139.132 216.594 125.632 229.594 117.132C242.788 108.506 256.594 112.632 262.094 116.132Z" fill="#939393"/>
<path id="Vector" d="M195.594 90.1322C217.594 58.9322 261.094 38.4655 280.094 32.1322H281.094L282.232 32.1782C301.303 38.5641 344.647 59.0073 366.594 90.1322C394.094 129.132 394.594 171.632 394.094 183.132C393.594 194.632 388.594 139.632 359.594 100.632C336.394 69.4322 307.261 56.9655 295.594 54.6322C294.594 54.4655 292.594 54.9322 292.594 58.1322C292.594 61.3322 289.261 130.465 287.594 164.632L281.094 172.632L274.594 164.632C272.928 130.465 269.594 61.3322 269.594 58.1322C269.594 54.9322 267.594 54.4655 266.594 54.6322C254.928 56.9655 225.794 69.4322 202.594 100.632C173.594 139.632 168.594 194.632 168.094 183.132C167.594 171.632 168.094 129.132 195.594 90.1322Z" fill="#939393"/>
<path id="Subtract_2" d="M369.579 153.012L389.079 231.512L389.116 231.663L389.062 231.809C387.651 235.542 385.557 241.873 383.866 248.714C382.173 255.565 380.896 262.886 381.094 268.615C381.49 280.112 386.556 292.938 389.041 297.909L389.142 298.11L389.058 298.318C383.019 313.415 360.243 349.114 317.325 371.576L316.594 371.958V255.336L316.853 255.194C323.51 251.532 338.987 241.929 347.732 232.786C349.111 231.345 350.148 230.339 350.894 229.699C351.265 229.379 351.578 229.139 351.832 228.981C351.959 228.902 352.084 228.835 352.205 228.789C352.317 228.748 352.477 228.704 352.65 228.733C352.864 228.768 353.041 228.903 353.128 229.102C353.199 229.263 353.193 229.427 353.181 229.537C353.154 229.766 353.058 230.036 352.938 230.31C352.689 230.875 352.255 231.642 351.705 232.522C349.504 236.043 345.232 241.701 342.447 244.486C339.684 247.249 335.923 250.634 332.415 253.577C329.077 256.379 325.933 258.81 324.094 259.916V352.962C325.539 352.511 327.491 351.749 329.271 350.735C331.356 349.548 333.082 348.085 333.619 346.474C333.674 346.308 333.739 345.941 333.8 345.34C333.859 344.756 333.912 343.992 333.959 343.066C334.053 341.214 334.122 338.73 334.17 335.762C334.265 329.828 334.275 321.975 334.231 313.41C334.144 296.279 333.844 276.307 333.594 263.142L333.589 262.872L333.81 262.72C338.884 259.226 346.772 253.46 353.938 247.522C357.52 244.553 360.916 241.545 363.688 238.761C366.468 235.968 368.587 233.43 369.65 231.4L369.703 231.3L369.794 231.232C369.86 231.182 370.013 231.01 370.186 230.615C370.353 230.231 370.522 229.675 370.65 228.911C370.907 227.384 370.993 225.059 370.597 221.691C369.814 215.037 367.371 194.116 366.174 183.851L298.458 212.331C298.041 212.58 297.524 212.62 297.074 212.535C296.602 212.447 296.107 212.207 295.794 211.793C295.457 211.349 295.378 210.765 295.664 210.145C295.934 209.559 296.519 208.956 297.465 208.34C298.403 207.729 300.597 206.567 303.588 205.048C306.591 203.523 310.429 201.623 314.68 199.528C323.183 195.337 333.342 190.366 341.81 186.048L341.816 186.044L364.545 174.845L363.191 165.821L340.383 174.53L340.384 174.531C324.785 180.594 296.931 191.27 293.407 192.417C292.454 192.728 291.679 192.818 291.078 192.713C290.46 192.605 289.999 192.277 289.8 191.766C289.612 191.283 289.703 190.747 289.925 190.286C290.15 189.819 290.533 189.376 291.026 189.035L291.06 189.011L291.097 188.993L293.88 187.68L293.901 187.67C298.686 185.677 312.082 179.187 326.978 172.056C341.858 164.932 358.22 157.177 368.899 152.671L369.438 152.445L369.579 153.012ZM345.095 274.132V329.632C345.095 333.232 347.095 332.799 348.095 332.132C357.295 324.932 368.928 309.799 373.595 303.132C368.795 294.332 367.595 275.799 367.595 267.632C366.795 264.432 364.928 266.299 364.095 267.632C361.595 271.632 362.095 283.132 362.595 286.632C362.995 289.431 362.095 289.799 361.595 289.632C354.812 287.232 355.102 271.966 356.095 264.632L345.095 274.132Z" fill="#939393"/>
</g>
</g>
<g id="logo kk_2">
<path id="Subtract_3" d="M147.965 389.981C159.431 389.981 172.387 395.581 176.814 409.915C180.748 422.652 180.108 434.654 177.811 441.621C174.867 450.553 165.822 464.01 147.965 464.01H115.099V389.981H147.965ZM124.099 403V452H132.099V403H124.099ZM141.099 452C153.841 452 157.925 444.323 160.058 437.85C161.718 432.815 162.983 423.824 159.328 414.834C155.207 404.698 147.841 403 141.099 403V452Z" fill="#939393"/>
<path id="Subtract_4" d="M105.758 390.004L91.3197 419.028C94.9079 420.028 97.2206 421.941 99.9195 424.63C104.077 428.773 106.438 434.416 106.483 440.319C106.528 446.221 104.254 451.9 100.161 456.105C96.067 460.311 90.7742 462.903 84.6619 463.711C72.229 465.355 61.1403 460.988 55.6182 458.127L59.0143 444.553C64.2616 450.706 74.9049 451.96 78.5706 451.825C81.7845 451.8 84.8573 450.485 87.1122 448.169C89.367 445.852 90.6194 442.724 90.5945 439.473C90.5696 436.222 89.2693 433.113 86.9794 430.831C84.6892 428.55 81.1016 427.933 77.8878 427.958L59.5995 428L72.0997 403L55.0992 403.001L61.5994 390.004L105.758 390.004ZM73.0993 419L82.0995 419L86.0989 411.001L90.0992 403L81.099 403L73.0993 419Z" fill="#939393"/>
<path id="Vector_2" d="M325.099 396.5V457.5L322.099 464H366.599V447.5L360.099 450.5H341.099V433H362.099V420H341.099V403H360.099L366.599 406V390H322.099L325.099 396.5Z" fill="#939393"/>
<path id="Subtract_5" d="M394.099 396.5V414H420.099V396.5L417.099 390H439.099L436.099 396.5V457.459L439.099 464H417.099L420.099 457.459V440H394.099V457.459L397.099 464H375.099L378.099 457.459V396.5L375.099 390H397.099L394.099 396.5ZM394.099 423.003V431H420.099V423.003H394.099Z" fill="#939393"/>
<path id="Subtract_6" d="M235.218 390L254.657 457.287L259.099 464H237.327L239.599 457.287L236.599 447.437H213.272L209.784 457.287L211.864 464H193.099L197.599 457.287L219.099 396.5L216.099 390H235.218ZM217.691 434.603H232.922L226.099 411L217.691 434.603Z" fill="#939393"/>
<path id="Subtract_7" d="M484.218 390L503.657 457.287L508.099 464H486.327L488.599 457.287L485.599 447.437H462.272L458.784 457.287L460.864 464H442.099L446.599 457.287L468.099 396.5L465.099 390H484.218ZM466.691 434.603H481.922L475.099 411L466.691 434.603Z" fill="#939393"/>
<path id="Subtract_8" d="M291.318 390C297.418 390 303.268 392.581 307.582 397.176C311.895 401.77 314.318 408.002 314.318 414.5C314.318 420.998 311.895 427.23 307.582 431.824C303.268 436.419 297.418 439 291.318 439H281.099V457.5L284.099 464H262.099L265.099 457.315V396.5L262.099 390H291.318ZM281.318 403V426.435H287.537C290.454 426.435 293.252 425.2 295.315 423.003C297.378 420.806 298.537 417.825 298.537 414.718C298.537 411.61 297.378 408.629 295.315 406.432C293.252 404.234 290.454 403 287.537 403H281.318Z" fill="#939393"/>
</g>
</g>
</svg>
